<svg width="229" height="20" viewBox="0 0 229 20" fill="none" xmlns="http://www.w3.org/2000/svg">
<g clip-path="url(#clip0_396_4811)">
<path d="M14.4551 12.9706C13.2309 15.258 11.0929 16.4022 8.04015 16.4022C5.607 16.4022 3.66754 15.802 2.22301 14.6006C0.777648 13.3998 0.0551758 11.8328 0.0551758 9.89873C0.0551758 8.24281 0.718876 6.84632 2.04628 5.70819C3.1961 4.72226 4.70024 4.04615 6.55868 3.67948L6.66951 3.75505C5.696 4.33653 4.91434 5.08209 4.32494 5.99245C3.60205 7.09208 3.24102 8.33132 3.24102 9.70874C3.24102 11.1624 3.70406 12.2876 4.63013 13.0836C5.58517 13.9176 6.97428 14.3354 8.79788 14.3354C9.34152 14.3354 9.76762 14.3102 10.0766 14.2595V4.07781C9.23825 4.04003 8.09808 3.81226 6.65608 3.39522C5.27284 2.99078 4.36062 2.78855 3.91941 2.78855C2.21294 2.78855 1.33724 3.48986 1.29358 4.89318H1.11559C0.791921 4.38798 0.630299 3.88207 0.630299 3.37651C0.630299 2.49206 0.962359 1.79651 1.62564 1.29096C2.28934 0.785759 3.22549 0.5328 4.43451 0.5328C5.28964 0.5328 6.49907 0.772805 8.06282 1.25317C9.62573 1.73354 10.6731 1.97355 11.2033 1.97355C12.147 1.97355 12.6193 1.72095 12.6193 1.21539C12.6193 0.773165 12.3389 0.551871 11.7789 0.551871C11.6466 0.551871 11.4468 0.583536 11.1815 0.646506L11.3582 0.324101C11.5474 0.28931 11.74 0.270271 11.9334 0.267248C12.4787 0.267248 12.9287 0.400024 13.2826 0.665217C13.6952 0.96855 13.9026 1.41114 13.9026 1.99226C13.9026 2.63707 13.6549 3.15522 13.1608 3.54707C12.6667 3.93892 12.0585 4.13503 11.336 4.13503H10.4288V14.2026C11.1513 14.1526 11.8889 13.982 12.6407 13.6909C13.3338 13.4254 13.8795 13.1217 14.2775 12.7809L14.4551 12.9706ZM9.21265 9.78466C9.21265 10.8339 8.62997 11.6554 7.46503 12.2495L5.69516 13.1595L5.47435 12.9321C6.18254 12.5654 6.53559 12.0595 6.53559 11.415V5.8791L5.518 6.353L5.3631 6.03059L9.21181 4.28615V9.78466H9.21265ZM23.9001 6.92188L23.325 7.37706V15.5487C23.325 16.5465 22.901 17.3655 22.053 18.0038C21.2046 18.6414 20.1694 18.9613 18.9457 18.9613C18.4591 18.9613 18.0091 18.898 17.5964 18.7717L17.5523 18.6771C19.4246 18.6771 20.3616 17.5206 20.3616 15.2069V7.50948L18.8575 6.42892L18.4591 6.73225V13.52L19.6979 14.2404L17.5964 15.9848L15.0084 14.2785V14.2411L15.5172 13.8619V1.93505C15.5172 1.39171 15.4135 0.923932 15.2074 0.532081L15.2514 0.51301C15.6939 0.765968 15.9517 1.15134 16.0255 1.66949H16.0692C16.6296 0.746897 17.6174 0.190605 19.0338 0.000976562L19.1001 0.0578292C18.6715 0.538198 18.4587 1.10061 18.4587 1.74506V6.39042L20.6265 4.66505L23.9001 6.88338V6.92188ZM32.9472 8.15393L28.5452 10.7137V13.0454L31.0006 14.2023L32.2171 13.1973L32.5047 13.425L29.3415 15.9658L25.183 14.0317V13.9939L25.6032 13.5963V7.30078C27.2253 6.64374 28.9436 5.77152 30.7571 4.68448L32.9472 8.15393ZM30.3591 9.2917L28.656 6.18208L28.5452 6.21986V10.3532L30.3591 9.2917ZM51.7713 13.5391C50.3558 14.1328 48.9104 15.1126 47.4361 16.4774C46.3442 15.656 44.9878 15.245 43.3661 15.245C40.7411 15.245 39.4289 15.7948 39.4289 16.8945C39.4289 17.3241 39.6392 17.6814 40.0594 17.966C40.4796 18.2499 40.9405 18.3928 41.4418 18.3928C42.0018 18.3928 42.4371 18.2726 42.7469 18.0326L42.6357 18.4496C42.252 18.6011 41.7953 18.6771 41.2642 18.6771C40.4527 18.6771 39.7748 18.481 39.2286 18.0891C38.6241 17.6465 38.3223 17.0398 38.3223 16.2687C38.3223 15.2195 38.9045 14.3915 40.0699 13.7852C41.1761 13.2041 42.6206 12.913 44.4051 12.913V3.37615C43.6356 3.48986 42.9107 3.54671 42.2297 3.54671C40.7055 3.54671 39.6106 3.3193 38.9448 2.86412C38.279 2.40894 37.9461 1.70152 37.9461 0.74078C37.9461 0.664857 37.9831 0.424852 38.057 0.0204072L38.1896 0.00133636C38.3517 0.481705 38.6321 0.823181 39.03 1.0254C39.5313 1.26541 40.3423 1.38559 41.4632 1.38559C42.0971 1.38559 43.1038 1.27188 44.4828 1.04447C45.8614 0.817064 46.853 0.702998 47.4579 0.702998C50.3335 0.702998 51.7713 2.0617 51.7713 4.77947V13.5391ZM43.9627 4.03967C43.4904 4.36855 43.2549 4.88023 43.2549 5.57541V10.0121C43.2549 11.5795 41.9938 12.7108 39.4717 13.4063L39.2509 13.2167C40.0317 12.9256 40.4234 12.3002 40.4234 11.3395V9.44355H39.9364C39.1547 9.44355 38.69 9.71522 38.5431 10.2593H38.4549C38.2341 10.0063 38.1229 9.67816 38.1229 9.27335C38.1229 8.14853 38.779 7.58612 40.0917 7.58612H40.4238V6.63798C40.4238 5.19723 41.5518 4.28687 43.8082 3.90797L43.9627 4.03967ZM48.6082 7.22522V5.08245C48.6082 4.36208 48.4688 3.84716 48.19 3.53735C47.9113 3.2279 47.4277 3.07282 46.7384 3.07282C46.4307 3.07282 45.7703 3.15522 44.759 3.3193V7.22522C45.4483 7.3767 46.0784 7.45263 46.6506 7.45263C47.413 7.45263 48.0654 7.3767 48.6082 7.22522ZM48.6082 9.32948V7.50912C48.036 7.66097 47.3836 7.73653 46.6506 7.73653C46.0486 7.73653 45.4185 7.66097 44.759 7.50912V9.32948C45.3304 9.178 45.9609 9.10207 46.6506 9.10207C47.3689 9.10207 48.0213 9.178 48.6082 9.32948ZM48.6082 13.9936V9.59503C47.9709 9.44272 47.3122 9.3662 46.6506 9.36762C46.0348 9.36762 45.4034 9.44355 44.759 9.59503V12.913C46.484 13.0648 47.7593 13.4247 48.5855 13.9939L48.6082 13.9936ZM63.6718 13.787L61.15 15.9845L58.5842 14.2213L55.908 15.9845C55.2443 15.8082 54.6616 15.4368 54.1604 14.8694C53.5853 14.2274 53.2977 13.5215 53.2977 12.7529C53.2977 11.9213 53.563 11.2031 54.0937 10.599C54.5802 10.0319 55.2368 9.63498 56.0621 9.40793C55.5163 8.929 55.0369 8.36839 54.6243 7.7261C54.1667 6.99565 53.9379 6.35947 53.9379 5.81758C53.9379 5.49013 54.0492 5.2163 54.27 4.99573C54.3718 4.88972 54.5003 4.80486 54.6459 4.74753C54.7914 4.69019 54.9502 4.66187 55.1104 4.66469C55.8035 4.66469 56.1507 4.98062 56.1507 5.61319C56.1507 6.05974 55.7821 6.32601 55.0445 6.41273V6.43144C55.2653 6.54298 55.5604 6.59876 55.929 6.59876C56.3417 6.59876 56.8437 6.37783 57.4331 5.93524C57.9362 5.56701 58.3757 5.13933 58.7383 4.66505L61.99 6.46634V6.50412L61.5257 6.86431V13.3678L62.7646 14.1832L63.4283 13.5765L63.6718 13.787ZM58.5838 9.02615V7.3767L57.1682 6.50448C56.8144 6.75744 56.4013 6.88374 55.9294 6.88374C55.3098 6.88374 54.8602 6.77651 54.5802 6.56134L54.5365 6.59912C54.6541 7.3472 55.3106 8.25108 56.505 9.31041C57.4189 9.12114 58.112 9.02615 58.5838 9.02615ZM58.5838 13.8417V9.2917C57.9646 9.2917 57.4226 9.57309 56.9579 10.1355C56.4936 10.6979 56.2611 11.3143 56.2611 11.9846C56.2611 13.2735 56.7258 14.1076 57.6548 14.4872L58.5838 13.8417ZM69.4448 13.6524L66.7464 15.9658L63.9589 14.1454V14.1076L64.4677 13.8043V1.9919C64.4677 1.46115 64.364 0.999855 64.1583 0.607644L64.202 0.588933C64.6146 0.867079 64.8732 1.25245 64.9761 1.74542H65.0201C65.6398 0.823181 66.6422 0.266529 68.0288 0.0769L68.0511 0.133753C67.6229 0.664497 67.4101 1.22727 67.4101 1.82062V13.3484L68.4499 14.0504L69.1354 13.4243L69.4448 13.6524ZM75.2179 13.6524L72.5194 15.9658L69.732 14.1454V14.1076L70.2408 13.8043V1.9919C70.2408 1.46115 70.1375 0.999855 69.9314 0.607644L69.975 0.588933C70.3877 0.867079 70.6463 1.25245 70.7491 1.74542H70.7932C71.4128 0.823181 72.4153 0.266529 73.8019 0.0769L73.8242 0.133753C73.396 0.664497 73.1831 1.22727 73.1831 1.82062V13.3484L74.223 14.0504L74.9085 13.4243L75.2179 13.6524ZM85.7691 13.787L83.2473 15.9845L80.6815 14.2213L78.0053 15.9845C77.3416 15.8082 76.759 15.4368 76.2577 14.8694C75.683 14.2274 75.395 13.5215 75.395 12.7529C75.395 11.9213 75.6603 11.2031 76.1914 10.599C76.6775 10.0319 77.3341 9.63498 78.1594 9.40793C77.6137 8.929 77.1347 8.36839 76.7216 7.7261C76.2644 6.99565 76.0356 6.35947 76.0356 5.81758C76.0356 5.49013 76.1465 5.2163 76.3677 4.99573C76.4695 4.88966 76.598 4.80476 76.7435 4.74742C76.8891 4.69008 77.048 4.66179 77.2081 4.66469C77.9008 4.66469 78.248 4.98062 78.248 5.61319C78.248 6.05974 77.8794 6.32601 77.1418 6.41273V6.43144C77.363 6.54298 77.6577 6.59876 78.0267 6.59876C78.439 6.59876 78.9411 6.37783 79.5309 5.93524C80.0337 5.5669 80.473 5.13924 80.8356 4.66505L84.0874 6.46634V6.50412L83.6235 6.86431V13.3678L84.8619 14.1832L85.5256 13.5765L85.7691 13.787ZM80.6811 9.02615V7.3767L79.2656 6.50448C78.9117 6.75744 78.499 6.88374 78.0272 6.88374C77.4071 6.88374 76.9575 6.77651 76.6775 6.56134L76.6339 6.59912C76.7518 7.3472 77.408 8.25108 78.6023 9.31041C79.5162 9.12114 80.2093 9.02615 80.6811 9.02615ZM80.6811 13.8417V9.2917C80.0619 9.2917 79.52 9.57309 79.0552 10.1355C78.5914 10.6979 78.3584 11.3143 78.3584 11.9846C78.3584 13.2735 78.8231 14.1076 79.7521 14.4872L80.6811 13.8417Z" fill="white"/>
<path d="M94.6383 4.00146C94.6383 4.35553 94.2546 5.03812 93.488 6.04924L91.5414 8.60868L94.174 9.74646V13.8614C92.6845 14.5692 91.5561 15.3022 90.7896 16.0603C90.1405 15.5292 89.4332 15.264 88.6658 15.264C86.8372 15.264 85.9228 15.7448 85.9228 16.7055C85.9228 17.6529 86.5425 18.1462 87.7809 18.184L87.4488 18.5064C86.1512 18.3168 85.5022 17.6968 85.5022 16.6483C85.5022 16.2687 85.6714 15.8203 86.011 15.3022C86.1138 15.1251 86.4165 14.7142 86.9178 14.0698L88.997 11.3963L86.0324 10.0876V7.14887C87.4929 6.73183 89.0848 5.88516 90.8101 4.60813C91.2383 5.12664 91.8055 5.38572 92.5137 5.38572C92.9708 5.38572 93.3688 5.25942 93.7084 5.00646C94.0476 4.7535 94.2172 4.42498 94.2172 4.02053C94.2172 3.62904 94.085 3.30664 93.8188 3.05332L94.3717 3.12924C94.5501 3.34442 94.6383 3.6348 94.6383 4.00146ZM91.1657 11.13L90.0213 10.6183L87.4051 13.9931H87.4274C87.9874 13.6894 88.7103 13.5376 89.5952 13.5376C90.2144 13.5376 90.7379 13.683 91.1657 13.9741V11.13ZM92.6031 6.67462H92.5808C92.0615 6.92757 91.5347 7.05387 91.0003 7.05387C90.3324 7.05387 89.6578 6.78868 88.9752 6.25758V8.68461L90.4567 9.38663L92.6031 6.67462ZM106.096 1.04369C105.934 1.16999 105.728 1.32795 105.477 1.51758C104.223 2.47832 103.132 2.95869 102.203 2.95869C101.982 2.95869 101.58 2.90183 100.997 2.78813C100.414 2.67442 100.042 2.61721 99.8803 2.61721C98.966 2.61721 98.5088 2.90831 98.5088 3.48943C98.5088 4.05832 98.929 4.34942 99.7694 4.36165L99.5482 4.6272C98.4865 4.56423 97.9555 4.01442 97.9555 2.97776C97.9555 2.29517 98.2208 1.76118 98.7514 1.37545C99.2829 0.990074 99.9756 0.797207 100.831 0.797207C101.303 0.797207 101.915 0.914151 102.667 1.14804C103.419 1.38193 103.928 1.49887 104.194 1.49887C104.606 1.49887 104.938 1.44202 105.189 1.32831C105.336 1.26534 105.572 1.10738 105.897 0.854419L106.096 1.04369ZM119.28 13.8794L116.67 16.2496L114.015 14.4289V3.88776L111.87 2.73128V7.64183H112.533L111.87 9.49998V13.9931L112.334 14.2968L113.108 13.6333L113.396 13.8607L110.675 16.2496L107.247 14.1831V14.1453L107.778 13.7657V9.49998H106.362L107.026 7.64183H107.778V3.73591L105.743 2.54165V11.4528C105.743 12.9316 105.577 13.9435 105.245 14.4868C104.914 15.0305 104.202 15.4314 103.111 15.6908C102.019 15.9502 101.289 16.196 100.921 16.4302C100.552 16.6634 100.368 16.9829 100.368 17.3877C100.368 18.247 101.068 18.677 102.47 18.677C103.015 18.677 103.457 18.5442 103.797 18.2794L103.686 18.7342C103.273 18.9238 102.802 19.0188 102.271 19.0188C101.386 19.0188 100.634 18.8353 100.014 18.469C99.3211 18.0642 98.9739 17.5209 98.9739 16.8383C98.9739 15.4101 100.08 14.4811 102.292 14.0511C103.412 13.8362 104.194 13.5585 104.637 13.217C105.138 12.8374 105.389 12.2688 105.389 11.5107L105.3 2.78921C105.035 3.01662 104.858 3.32643 104.769 3.71828C104.725 3.95864 104.703 4.41994 104.703 5.10253V11.3783C104.703 11.9472 104.345 12.4401 103.629 12.8572C102.914 13.2738 102.033 13.5336 100.986 13.6344L100.876 13.4257C101.495 13.1353 101.805 12.6679 101.805 12.0231V9.50141H101.318C100.536 9.50141 100.071 9.77344 99.9244 10.3168H99.8358C99.615 10.0638 99.5037 9.73566 99.5037 9.33086C99.5037 8.20604 100.16 7.64363 101.473 7.64363H101.805V6.51197C101.799 5.91043 102.024 5.32401 102.446 4.8431C102.874 4.34654 103.758 3.59558 105.1 2.59022L107.489 0.798646L111.028 2.71364L113.351 0.704012L117.687 2.77086V2.80864L117.178 3.28253V13.597L118.262 14.2986L119.014 13.6351L119.28 13.8794ZM111.516 7.64183V2.76906L110.941 3.28073V7.64183H111.516ZM111.516 13.8413V9.49998H110.941V13.4437L111.516 13.8413ZM128.526 7.18665L128.061 7.54684V13.4059C125.864 14.2396 124.058 15.0928 122.642 15.965L119.634 14.0878V14.0503L120.077 13.652V7.47091C120.666 7.23091 121.473 6.81999 122.499 6.23851C123.523 5.65739 124.353 5.13276 124.988 4.66462L128.527 7.14851V7.18665H128.526ZM125.097 14.4677V7.64183L123.129 6.2198L123.04 6.27665V13.3487L124.899 14.5426L125.097 14.4677ZM137.794 7.04596L135.715 8.81702C134.948 8.29887 134.343 7.55943 133.902 6.59869L133.702 6.76961V13.1209L135.649 14.0691L136.335 13.4437L136.6 13.6524L133.88 15.9841L130.119 14.05V14.0126L130.761 13.5574V7.41442L129.832 6.52313L129.102 7.1298L128.836 6.9211L131.579 4.66462L133.569 6.48499L135.826 4.66462C136.386 5.60485 137.042 6.39827 137.794 7.04596ZM149.76 13.6538L147.084 15.965L144.805 14.4641V7.51121L143.301 6.44721L142.903 6.73183V13.5387L144.164 14.2403L142.062 15.9661L139.43 14.2598V14.2216L139.961 13.8614V7.41442L139.032 6.52313L138.302 7.1298L138.037 6.9211L140.779 4.66462L142.77 6.48499L145.07 4.66462L148.344 6.86388V6.90167L147.747 7.37556V13.348L148.809 14.0493L149.494 13.4239L149.76 13.6538ZM155.91 13.652L153.234 15.9653L150.424 14.1263V14.0885L150.977 13.7283V7.37628L150.026 6.52313L149.274 7.1298L149.053 6.9211L151.751 4.66462L154.45 6.8261V6.86388L153.919 7.22407V13.3292L154.937 14.0496L155.645 13.4242L155.91 13.652ZM154.826 1.74499C154.339 2.12425 153.447 2.8511 152.15 3.92554L150.336 2.44665L149.695 2.95869L149.474 2.7705C150.624 1.86769 151.509 1.14048 152.128 0.588867L153.986 2.04868L154.606 1.55572L154.826 1.74499ZM166.926 13.6538L164.249 15.965L161.97 14.4641V7.51121L160.466 6.44721L160.068 6.73183V13.5387L161.329 14.2403L159.228 15.9661L156.595 14.2598V14.2216L157.126 13.8614V7.41442L156.197 6.52313L155.468 7.1298L155.202 6.9211L157.945 4.66462L159.936 6.48499L162.236 4.66462L165.51 6.86388V6.90167L164.912 7.37556V13.348L165.974 14.0493L166.659 13.4239L166.926 13.6538ZM177.255 15.5861C177.255 16.0157 177.041 16.4198 176.615 16.7994L173.695 19.4157C172.751 18.6443 171.748 18.2589 170.686 18.2589C169.33 18.2589 168.201 18.6126 167.302 19.3207L167.213 19.2639C167.537 18.455 168.062 17.7879 168.784 17.2636C169.506 16.739 170.317 16.4763 171.217 16.4763C172.839 16.4763 174.151 16.8743 175.154 17.6706C175.478 17.4306 175.641 17.1711 175.641 16.8933C175.641 16.5396 175.323 16.2676 174.689 16.0776C173.465 15.7113 172.831 15.0985 172.787 14.2389L170.642 15.9643L167.39 14.0115V13.9737L167.922 13.6139V7.54684C169.853 6.70016 171.549 5.73295 173.009 4.64591L176.305 6.95924V6.99702L175.73 7.47091V13.3678C175.73 13.7474 175.985 14.1133 176.493 14.4677C177.001 14.8215 177.255 15.1946 177.255 15.5861ZM172.765 13.9172V7.54684L171.083 6.27665L170.863 6.40942V13.3487L172.367 14.2213L172.765 13.9172ZM196.19 1.32795C195.88 2.81979 195.003 3.57795 193.557 3.60314V16.3252H193.028L188.526 9.89758C187.923 9.68277 187.239 9.57518 186.474 9.57518C185.886 9.57518 185.276 9.67665 184.643 9.87851V13.4052C186.022 13.4052 187.115 13.715 187.922 14.3342L188.648 13.6707L188.912 13.8985L186.324 16.1924C185.631 15.839 184.857 15.6613 184.001 15.6613C182.556 15.6613 181.834 16.1733 181.834 17.1974C181.834 17.7026 182.029 18.1139 182.42 18.4294C182.81 18.745 183.315 18.9033 183.934 18.9033C184.524 18.9033 184.996 18.7763 185.35 18.5241L185.218 18.9415C184.778 19.105 184.304 19.1889 183.824 19.1879C181.627 19.1879 180.528 18.3003 180.528 16.5256C180.528 15.5613 180.919 14.7941 181.7 14.2238C182.393 13.7164 183.256 13.444 184.288 13.4063V9.04443H183.802C183.02 9.04443 182.555 9.31646 182.409 9.8598H182.32C182.099 9.60684 181.989 9.27832 181.989 8.87388C181.989 7.74906 182.644 7.18665 183.957 7.18665H184.288V3.94425C184.023 3.57795 183.839 3.34406 183.736 3.24295C183.47 3.00294 183.175 2.88276 182.851 2.88276C182.114 2.88276 181.716 3.28073 181.657 4.07739L181.546 4.09646C181.206 3.70497 181.037 3.20517 181.037 2.5985C181.037 1.97924 181.309 1.48016 181.854 1.10054C182.369 0.759425 183.002 0.588867 183.753 0.588867C184.562 0.588867 185.261 0.804044 185.85 1.23368C186.233 1.51182 186.674 1.99831 187.174 2.69349L189.536 5.97367C190.111 6.13811 190.766 6.22016 191.502 6.22016C192.062 6.22016 192.629 6.13811 193.203 5.97367V3.60314C192.073 3.60314 191.031 3.3124 190.078 2.73092L189.242 3.52721L188.955 3.2998L191.832 0.721283C192.569 1.30276 193.344 1.5935 194.154 1.5935C195.054 1.5935 195.718 1.49239 196.145 1.29017L196.19 1.32795ZM188.226 9.57554L184.666 4.28573H184.643V9.59461C185.317 9.39239 185.926 9.29128 186.468 9.29128C187.171 9.29128 187.758 9.38663 188.226 9.57554ZM193.203 11.2059V6.25758C192.632 6.42202 192.068 6.50406 191.511 6.50406C190.764 6.50406 190.178 6.43461 189.753 6.29536L193.16 11.2059H193.203ZM203.158 8.1535L198.756 10.7133V13.045L201.211 14.2018L202.428 13.1968L202.716 13.4246L199.553 15.9653L195.394 14.0313V13.9935L195.815 13.5959V7.30035C197.437 6.64331 199.154 5.77109 200.968 4.68405L203.158 8.1535ZM200.57 9.29128L198.866 6.18165L198.755 6.21944V10.3528L200.57 9.29128ZM218.443 6.40942L217.912 6.78868V12.9881C216.364 13.6966 214.652 14.6952 212.779 15.9841L210.391 14.3724L207.914 15.9841L204.617 13.7661V13.7283L205.237 13.2728V7.88831C205.237 7.18053 205.06 6.6685 204.706 6.35221C204.263 5.94777 204.043 5.51813 204.043 5.06295C204.043 4.41814 204.388 3.93202 205.082 3.60314C205.642 3.35054 206.336 3.22388 207.161 3.22388L207.316 3.50814C206.579 3.45777 206.21 3.68554 206.21 4.19073C206.21 4.55776 206.537 4.90175 207.194 5.22415C207.85 5.54656 208.179 6.15035 208.179 7.0348V13.14L209.863 14.3155L210.06 14.1831V7.11073L208.843 6.39035L210.923 4.64591L213.068 6.14387V13.14L214.75 14.3159L214.949 14.1831V7.11073L213.71 6.39035L215.789 4.64591L218.444 6.37128L218.443 6.40942ZM228.286 4.00146C228.286 4.35553 227.902 5.03812 227.136 6.04924L225.189 8.60868L227.822 9.74646V13.8614C226.332 14.5692 225.204 15.3022 224.437 16.0603C223.788 15.5292 223.08 15.264 222.313 15.264C220.485 15.264 219.57 15.7448 219.57 16.7055C219.57 17.6529 220.19 18.1462 221.429 18.184L221.097 18.5064C219.799 18.3168 219.15 17.6968 219.15 16.6483C219.15 16.2687 219.319 15.8203 219.659 15.3022C219.761 15.1251 220.065 14.7142 220.565 14.0698L222.645 11.3963L219.68 10.0876V7.14887C221.141 6.73183 222.733 5.88516 224.459 4.60813C224.886 5.12664 225.454 5.38572 226.162 5.38572C226.619 5.38572 227.017 5.25942 227.357 5.00646C227.696 4.7535 227.866 4.42498 227.866 4.02053C227.866 3.62904 227.733 3.30664 227.468 3.05332L228.02 3.12924C228.197 3.34442 228.286 3.6348 228.286 4.00146ZM224.813 11.13L223.669 10.6183L221.052 13.9931H221.075C221.635 13.6894 222.358 13.5376 223.242 13.5376C223.863 13.5376 224.386 13.683 224.813 13.9741V11.13ZM226.25 6.67462H226.228C225.709 6.92757 225.182 7.05387 224.648 7.05387C223.98 7.05387 223.305 6.78868 222.622 6.25758V8.68461L224.104 9.38663L226.25 6.67462Z" fill="white"/>
</g>
<defs>
<clipPath id="clip0_396_4811">
<rect width="228.341" height="19.4155" fill="white"/>
</clipPath>
</defs>
</svg>
